#!OML:ASF H:\Terrain\Patient Classification 1\Walking\steve\steve.ASF
:FULLY-SPECIFIED
:DEGREES
110
root 8.55759 15.8499 -13.1075 5.14062 -3.02642 4.01665
lowerback 2.33156 0.923046 -5.01417
upperback -1.97062 1.02121 -0.558799
thorax -3.42217 0.621878 2.17883
lowerneck -9.6059 -0.532423 -2.38266
upperneck 14.0227 -0.982103 4.13823
head 5.84989 -0.293868 1.62076
rclavicle -2.12016e-014 -9.54166e-015
rhumerus -51.4434 -21.2729 -68.5191
rradius 20.9211
rwrist 13.7215
rhand -20.2183 -38.9273
rfingers 7.12502
rthumb 6.12908 -68.8187
lclavicle -2.12016e-014 -9.54166e-015
lhumerus -21.843 -6.0452 88.0767
lradius 29.2932
lwrist 8.96718
lhand -28.5142 -17.0643
lfingers 7.12502
lthumb -1.88254 12.9072
rfemur -40.4783 1.89796 20.3056
rtibia 46.5562
rfoot -14.7593 6.6789
rtoes -3.72806
lfemur -5.47244 3.74147 -29.5939
ltibia 22.6973
lfoot -18.4534 -9.37225
ltoes 4.94373
111
root 8.56044 15.8496 -12.8541 5.29968 -2.58926 4.04615
lowerback 2.22281 0.753951 -5.07382
upperback -1.97633 0.800786 -0.528682
thorax -3.35139 0.5125 2.25683
lowerneck -9.56118 -0.539566 -2.18297
upperneck 13.7926 -0.989231 3.95596
head 5.76878 -0.302384 1.52822
rclavicle -2.29969e-014 -6.95746e-015
rhumerus -53.3631 -23.7372 -65.0209
rradius 19.2738
rwrist 18.3343
rhand -18.4934 -37.7301
rfingers 7.12502
rthumb 7.79413 -67.5664
lclavicle -2.29969e-014 -6.95746e-015
lhumerus -20.7061 -7.32078 87.9328
lradius 31.1231
lwrist 10.6056
lhand -28.7949 -16.3613
lfingers 7.12502
lthumb -2.15364 13.6076
rfemur -41.1655 1.73444 20.3086
rtibia 43.4003
rfoot -13.4558 7.14008
rtoes -1.17884
lfemur -3.71454 4.28157 -29.5234
ltibia 20.913
lfoot -18.0251 -10.064
ltoes 5.19637
112
root 8.56489 15.8427 -12.595 5.43988 -2.34405 4.23338
lowerback 1.97845 0.767832 -5.29791
upperback -1.93626 0.82817 -0.527009
thorax -3.17814 0.526643 2.38587
lowerneck -9.49851 -0.677428 -2.11899
upperneck 13.5149 -1.17335 3.91899
head 5.67667 -0.393792 1.49033
rclavicle 1.21259e-014 2.16675e-014
rhumerus -55.7788 -26.7009 -60.425
rradius 17.5692
rwrist 22.7085
rhand -18.3347 -36.1185
rfingers 7.12502
rthumb 7.94734 -65.9491
lclavicle 1.21259e-014 2.16675e-014
lhumerus -19.2874 -8.27127 87.7985
lradius 32.7647
lwrist 12.4429
lhand -28.082 -16.2961
lfingers 7.12502
lthumb -1.46508 13.6787
rfemur -41.7869 1.7382 20.0776
rtibia 40.2132
rfoot -11.9824 7.51587
rtoes 0.766417
lfemur -1.82351 4.89898 -29.6501
ltibia 18.9881
lfoot -17.8166 -10.4196
ltoes 3.63591
113
root 8.56701 15.8225 -12.3374 5.57719 -2.10532 4.43853
lowerback 1.80922 0.787361 -5.53436
upperback -1.92123 0.857486 -0.548077
thorax -3.07368 0.543483 2.49724
lowerneck -9.52192 -0.794111 -2.13551
upperneck 13.3066 -1.33458 4.00135
head 5.62139 -0.468288 1.50563
rclavicle 1.0517e-014 3.18055e-015
rhumerus -58.5955 -29.1512 -55.8296
rradius 16.5657
rwrist 26.2892
rhand -18.6065 -35.1275
rfingers 7.12502
rthumb 7.68497 -64.9679
lclavicle 1.0517e-014 3.18055e-015
lhumerus -17.9499 -9.50238 87.6298
lradius 34.1661
lwrist 14.1317
lhand -27.839 -16.6191
lfingers 7.12502
lthumb -1.23044 13.3571
rfemur -42.3529 1.98602 19.7206
rtibia 37.0741
rfoot -10.4766 7.67462
rtoes 2.62792
lfemur 0.142561 5.43776 -29.7949
ltibia 16.856
lfoot -17.2331 -10.6779
ltoes 3.9072
114
root 8.5649 15.8098 -12.087 5.82387 -1.65155 4.44954
lowerback 1.65527 0.67795 -5.56701
upperback -1.89453 0.722396 -0.531434
thorax -2.94829 0.473455 2.54099
lowerneck -9.64949 -0.857574 -2.29456
upperneck 13.1611 -1.41772 4.19284
head 5.60277 -0.502537 1.58492
rclavicle -2.7892e-015 1.2921e-014
rhumerus -61.5484 -31.3447 -51.2122
rradius 15.8333
rwrist 29.9705
rhand -18.9761 -34.6842
rfingers 7.12502
rthumb 7.32824 -64.5373
lclavicle -2.7892e-015 1.2921e-014
lhumerus -16.7017 -10.5372 87.2985
lradius 35.6586
lwrist 15.4202
lhand -27.9445 -17.0668
lfingers 7.12502
lthumb -1.33227 12.9088
rfemur -42.9649 2.25965 19.5026
rtibia 34.0979
rfoot -9.29876 7.70051
rtoes 1.86885
lfemur 2.116 6.03133 -29.6464
ltibia 14.3427
lfoot -16.3246 -11.0596
ltoes 4.30811
115
root 8.56501 15.8176 -11.8389 6.06328 -1.03012 4.57071
lowerback 1.47379 0.52002 -5.64649
upperback -1.81784 0.523993 -0.559549
thorax -2.75007 0.36935 2.56712
lowerneck -9.52306 -0.89158 -2.51569
upperneck 12.6257 -1.47267 4.60516
head 5.42046 -0.516493 1.74441
rclavicle -1.14301e-015 -4.37326e-015
rhumerus -64.9454 -33.6661 -45.8109
rradius 15.0509
rwrist 33.962
rhand -19.4185 -34.3541
rfingers 7.12502
rthumb 6.9012 -64.2216
lclavicle -1.14301e-015 -4.37326e-015
lhumerus -15.4879 -11.4826 86.9147
lradius 37.4024
lwrist 16.4775
lhand -27.732 -17.9068
lfingers 7.12502
lthumb -1.12708 12.0699
rfemur -43.4959 2.39362 19.0598
rtibia 31.3925
rfoot -9.02959 7.66964
rtoes -2.11096
lfemur 4.35335 6.42212 -29.5786
ltibia 11.4322
lfoot -15.5398 -11.0649
ltoes 2.37689
116
root 8.56905 15.8204 -11.5889 6.34016 -0.392716 4.76378
lowerback 1.19708 0.362924 -5.76434
upperback -1.79677 0.330722 -0.595935
thorax -2.55631 0.269455 2.60474
lowerneck -8.99993 -0.942899 -2.78036
upperneck 11.814 -1.55346 5.13262
head 5.08856 -0.54621 1.94389
rclavicle -8.00108e-015 1.43125e-014
rhumerus -68.3333 -35.2083 -40.7879
rradius 14.4073
rwrist 36.9857
rhand -19.7944 -34.6356
rfingers 7.12502
rthumb 6.53834 -64.5147
lclavicle -8.00108e-015 1.43125e-014
lhumerus -14.3315 -12.2083 86.5601
lradius 39.1809
lwrist 17.3572
lhand -27.1574 -18.1407
lfingers 7.12502
lthumb -0.572105 11.8383
rfemur -44.1308 2.43954 18.4826
rtibia 29.033
rfoot -9.57342 7.64427
rtoes -4.63508
lfemur 6.95052 5.5507 -29.7376
ltibia 7.8487
lfoot -14.5201 -10.1236
ltoes 1.05026
117
root 8.57406 15.7991 -11.3327 6.66979 0.117488 4.71364
lowerback 0.877742 0.243368 -5.68676
upperback -1.82184 0.196125 -0.521233
thorax -2.39001 0.197775 2.64408
lowerneck -8.98264 -0.987441 -2.86006
upperneck 11.6416 -1.61402 5.27142
head 5.03655 -0.572071 1.99524
rclavicle -8.72168e-015 -2.98177e-015
rhumerus -71.4131 -36.0657 -36.4288
rradius 14.0015
rwrist 39.1075
rhand -19.8695 -35.3338
rfingers 7.12502
rthumb 6.46579 -65.2151
lclavicle -8.72168e-015 -2.98177e-015
lhumerus -13.2759 -12.0948 86.3208
lradius 40.7993
lwrist 17.6083
lhand -26.6602 -17.2286
lfingers 7.12502
lthumb -0.0919348 12.7512
rfemur -44.9707 2.24143 18.3768
rtibia 27.1843
rfoot -10.0548 8.36278
rtoes -3.70533
lfemur 11.6346 4.83027 -29.7293
ltibia -9.54166e-015
lfoot -11.13 -9.07586
ltoes 2.43892
118
root 8.58325 15.7762 -11.076 6.88286 0.671734 4.60928
lowerback 0.944864 0.162382 -5.49649
upperback -1.96964 0.0841324 -0.44201
thorax -2.56997 0.146739 2.62229
lowerneck -9.31261 -1.04595 -2.59281
upperneck 11.8698 -1.69125 4.93865
head 5.16174 -0.613151 1.84227
rclavicle -1.41261e-014 1.5704e-014
rhumerus -74.5487 -36.4549 -32.2512
rradius 13.8795
rwrist 40.5124
rhand -19.6183 -35.3451
rfingers 7.12502
rthumb 6.70829 -65.2189
lclavicle -1.41261e-014 1.5704e-014
lhumerus -12.5801 -12.2364 86.1179
lradius 42.5459
lwrist 17.8781
lhand -26.3963 -16.4727
lfingers 7.12502
lthumb 0.163016 13.507
rfemur -45.6475 1.44214 18.7519
rtibia 25.7259
rfoot -10.3914 9.45443
rtoes -2.58109
lfemur 12.3236 4.08977 -29.6186
ltibia -2.54444e-014
lfoot -11.2619 -9.10882
ltoes 4.52107
119
root 8.59756 15.7576 -10.8202 7.08836 1.39083 4.74939
lowerback 1.05527 0.031499 -5.41179
upperback -2.19534 -0.103571 -0.442233
thorax -2.84958 0.0629007 2.58062
lowerneck -9.26259 -1.14128 -2.23965
upperneck 11.9107 -1.80624 4.43121
head 5.16317 -0.687564 1.61757
rclavicle 5.01931e-015 -1.19271e-015
rhumerus -77.3425 -36.3912 -28.6425
rradius 13.769
rwrist 41.2842
rhand -19.7214 -35.3873
rfingers 7.12502
rthumb 6.60873 -65.2642
lclavicle 5.01931e-015 -1.19271e-015
lhumerus -12.2366 -12.781 85.9154
lradius 44.5732
lwrist 18.6627
lhand -26.6516 -16.2681
lfingers 7.12502
lthumb -0.0836384 13.7116
rfemur -46.1017 0.313809 19.0199
rtibia 24.3426
rfoot -10.7044 9.9578
rtoes -3.89027
lfemur 13.0887 3.16832 -29.7694
ltibia 3.18055e-014
lfoot -11.3324 -8.87909
ltoes 5.7853
120
root 8.60921 15.7308 -10.5637 7.36457 2.0056 5.01109
lowerback 0.561183 -0.106281 -5.46158
upperback -2.04313 -0.251076 -0.474931
thorax -2.40079 -0.024422 2.57799
lowerneck -9.38419 -1.2292 -1.9966
upperneck 11.6392 -1.89502 4.0176
head 5.09685 -0.74861 1.4411
rclavicle 1.34304e-014 3.37934e-015
rhumerus -79.69 -36.8203 -25.2261
rradius 13.4924
rwrist 42.4237
rhand -20.0137 -35.4627
rfingers 7.12502
rthumb 6.32658 -65.3482
lclavicle 1.34304e-014 3.37934e-015
lhumerus -11.2651 -13.2836 85.6543
lradius 46.2146
lwrist 19.616
lhand -27.2224 -16.4033
lfingers 7.12502
lthumb -0.634912 13.5755
rfemur -46.4188 -0.518949 19.0117
rtibia 22.9245
rfoot -10.6153 10.1735
rtoes -6.75447
lfemur 13.8927 2.31069 -29.9705
ltibia -3.18055e-015
lfoot -11.1401 -8.97335
ltoes 8.40863
121
root 8.6151 15.6767 -10.307 7.50897 2.36149 5.25542
lowerback 0.772745 -0.242125 -5.78285
upperback -2.192 -0.456267 -0.376945
thorax -2.65539 -0.109419 2.86609
lowerneck -9.37973 -1.19439 -2.08948
upperneck 11.6186 -1.82077 3.91957
head 5.08715 -0.723096 1.43109
rclavicle -1.15544e-015 -3.06128e-014
rhumerus -81.4233 -36.4972 -22.682
rradius 13.3115
rwrist 43.177
rhand -19.9572 -35.5059
rfingers 7.12502
rthumb 6.38112 -65.3898
lclavicle -1.15544e-015 -3.06128e-014
lhumerus -10.7435 -13.9002 85.4354
lradius 47.4367
lwrist 20.398
lhand -27.3444 -17.0208
lfingers 7.12502
lthumb -0.752743 12.9576
rfemur -46.4664 -1.26004 19.236
rtibia 21.4251
rfoot -9.45339 10.7052
rtoes -5.34173
lfemur 14.8509 1.72534 -30.1496
ltibia -1.27222e-014
lfoot -10.9044 -9.01307
ltoes 9.7535
122
root 8.62341 15.5882 -10.0415 7.4931 2.61617 5.45677
lowerback 0.914752 -0.395161 -6.02303
upperback -2.14194 -0.6724 -0.309053
thorax -2.66153 -0.212282 3.07822
lowerneck -9.65302 -1.08843 -2.05028
upperneck 11.6838 -1.67666 3.87922
head 5.14834 -0.650144 1.4218
rclavicle -3.60297e-015 1.39149e-014
rhumerus -82.5666 -36.2733 -20.9678
rradius 13.211
rwrist 43.612
rhand -19.7549 -35.5775
rfingers 7.12502
rthumb 6.5764 -65.4554
lclavicle -3.60297e-015 1.39149e-014
lhumerus -10.1586 -13.9058 85.0285
lradius 48.8784
lwrist 20.5719
lhand -27.4042 -16.8009
lfingers 7.12502
lthumb -0.810519 13.1773
rfemur -46.5675 -3.3442 20.858
rtibia 20.44
rfoot -7.63271 11.8663
rtoes -6.18121
lfemur 16.0118 1.28575 -30.3759
ltibia -5.725e-014
lfoot -10.6265 -8.93258
ltoes 9.51096
123
root 8.63682 15.5036 -9.77204 7.41078 2.88599 5.62503
lowerback 0.978324 -0.456914 -5.97126
upperback -2.07726 -0.756361 -0.337639
thorax -2.62279 -0.258073 3.02247
lowerneck -9.55869 -1.12171 -1.82861
upperneck 11.3593 -1.70084 3.53447
head 5.028 -0.678644 1.27595
rclavicle 4.82053e-015 -2.38542e-015
rhumerus -84.0838 -36.1288 -18.9261
rradius 13.1693
rwrist 44.1664
rhand -19.6469 -35.1579
rfingers 7.12502
rthumb 6.68073 -65.0325
lclavicle 4.82053e-015 -2.38542e-015
lhumerus -9.88206 -13.4987 84.8589
lradius 50.5474
lwrist 20.4574
lhand -27.7612 -15.8919
lfingers 7.12502
lthumb -1.15524 14.0847
rfemur -47.1613 -6.33587 23.4552
rtibia 20.7282
rfoot -3.24906 14.985
rtoes 7.58902
lfemur 17.2753 0.841988 -30.5285
ltibia -4.45278e-014
lfoot -10.4077 -9.00226
ltoes 8.62617
